<svg xmlns="http://www.w3.org/2000/svg" viewBox="0 0 1200 750" role="img" aria-label="HEALTHCARE dashboard placeholder">
  <defs>
    <linearGradient id="bg" x1="0" x2="1" y1="0" y2="1"><stop offset="0" stop-color="#22d3ee"/><stop offset="1" stop-color="#2563eb"/></linearGradient>
    <linearGradient id="panel" x1="0" x2="1" y1="0" y2="1"><stop offset="0" stop-color="#111827" stop-opacity=".92"/><stop offset="1" stop-color="#0f172a" stop-opacity=".82"/></linearGradient>
    <filter id="shadow"><feDropShadow dx="0" dy="28" stdDeviation="30" flood-color="#000" flood-opacity=".28"/></filter>
  </defs>
  <rect width="1200" height="750" rx="44" fill="url(#bg)"/>
  <circle cx="1040" cy="120" r="220" fill="#fff" opacity=".12"/>
  <circle cx="80" cy="680" r="280" fill="#fff" opacity=".10"/>
  <g opacity=".18" stroke="#fff" stroke-width="2">
    <path d="M80 140h1040M80 260h1040M80 380h1040M80 500h1040M80 620h1040"/>
    <path d="M160 80v590M320 80v590M480 80v590M640 80v590M800 80v590M960 80v590"/>
  </g>
  <g filter="url(#shadow)">
    <rect x="110" y="120" width="980" height="510" rx="34" fill="url(#panel)" stroke="#fff" stroke-opacity=".18"/>
    <rect x="150" y="165" width="300" height="98" rx="22" fill="#fff" opacity=".10"/>
    <rect x="482" y="165" width="250" height="98" rx="22" fill="#fff" opacity=".10"/>
    <rect x="764" y="165" width="286" height="98" rx="22" fill="#fff" opacity=".10"/>
    <text x="150" y="338" font-family="Arial, sans-serif" font-size="54" font-weight="800" fill="#fff">HEALTHCARE</text>
    <text x="152" y="385" font-family="Arial, sans-serif" font-size="26" font-weight="600" fill="#dbeafe">Patients • Billing • Admissions</text>
    <g transform="translate(155 455)">
      <rect x="0" y="90" width="65" height="80" rx="14" fill="#22d3ee"/>
      <rect x="94" y="50" width="65" height="120" rx="14" fill="#22d3ee"/>
      <rect x="188" y="10" width="65" height="160" rx="14" fill="#2563eb"/>
      <rect x="282" y="70" width="65" height="100" rx="14" fill="#fff" opacity=".85"/>
      <rect x="376" y="30" width="65" height="140" rx="14" fill="#f97316"/>
    </g>
    <g transform="translate(650 430)">
      <circle cx="115" cy="115" r="100" fill="none" stroke="#fff" stroke-width="34" opacity=".22"/>
      <path d="M115 15a100 100 0 0 1 90 144" fill="none" stroke="#22d3ee" stroke-width="34" stroke-linecap="round"/>
      <path d="M205 159a100 100 0 0 1-150 39" fill="none" stroke="#22d3ee" stroke-width="34" stroke-linecap="round"/>
      <text x="70" y="126" font-family="Arial, sans-serif" font-size="34" font-weight="900" fill="#fff">84%</text>
    </g>
  </g>
</svg>